<svg xmlns="http://www.w3.org/2000/svg" version="1.1" xmlns:xlink="http://www.w3.org/1999/xlink" xmlns:svgjs="http://svgjs.com/svgjs" width="2000" height="1500" preserveAspectRatio="none" viewBox="0 0 2000 1500"><g mask="url(&quot;#SvgjsMask1090&quot;)" fill="none"><rect width="2000" height="1500" x="0" y="0" fill="url(#SvgjsLinearGradient1091)"></rect><path d="M155.462,348.122C233.36,353.058,321.426,341.407,361.032,274.148C401.006,206.262,366.852,124.384,327.345,56.225C287.994,-11.664,233.886,-77.855,155.462,-80.51C73.392,-83.288,-1.228,-29.644,-37.831,43.864C-71.074,110.623,-49.441,187.724,-9.45,250.673C27.247,308.437,87.164,343.794,155.462,348.122" fill="rgba(28, 83, 142, 0.4)" class="triangle-float3"></path><path d="M217.308,502.986C317.842,504.091,405.87,442.26,457.153,355.783C509.592,267.356,524.286,158.754,474.924,68.574C423.703,-25.001,323.706,-90.084,217.308,-82.39C120.381,-75.381,62.766,15.933,17.041,101.684C-25.118,180.749,-53.588,270.436,-13.578,350.61C30.553,439.042,118.482,501.9,217.308,502.986" fill="rgba(28, 83, 142, 0.4)" class="triangle-float1"></path><path d="M85.822,219.421C143.232,221.479,211.412,224.665,240.375,175.053C269.452,125.246,233.872,66.907,203.467,17.899C175.343,-27.433,138.99,-69.686,85.822,-74.064C24.779,-79.09,-40.555,-57.867,-70.959,-4.696C-101.2,48.191,-85.581,114.698,-50.659,164.619C-20.54,207.674,33.312,217.538,85.822,219.421" fill="rgba(28, 83, 142, 0.4)" class="triangle-float2"></path><path d="M1735.868,142.551C1773.418,141.843,1805.869,119.635,1825.492,87.612C1846.167,53.873,1856.101,12.132,1837.037,-22.543C1817.39,-58.279,1776.623,-76.852,1735.868,-75.407C1697.482,-74.046,1665.542,-49.087,1646.406,-15.783C1627.348,17.385,1621.37,57.803,1640.188,91.108C1659.28,124.898,1697.064,143.283,1735.868,142.551" fill="rgba(28, 83, 142, 0.4)" class="triangle-float1"></path><path d="M1848.594,355.699C1924.428,353.146,1995.479,320.895,2036.776,257.241C2082.316,187.047,2108.174,95.263,2063.428,24.56C2020.564,-43.17,1928.728,-41.895,1848.594,-40.104C1772.831,-38.411,1692.403,-28.85,1649.771,33.803C1602.091,103.873,1592.571,198.587,1637.11,270.695C1679.902,339.976,1767.209,358.439,1848.594,355.699" fill="rgba(28, 83, 142, 0.4)" class="triangle-float3"></path><path d="M1769.564,198.394C1814.945,194.675,1853.864,170.737,1878.699,132.573C1906.521,89.82,1928.424,36.732,1903.857,-7.971C1878.684,-53.779,1821.83,-65.459,1769.564,-66.019C1716.021,-66.593,1659.742,-55.556,1630.188,-10.905C1597.764,38.082,1591.758,104.525,1624.319,153.421C1654.428,198.635,1715.424,202.831,1769.564,198.394" fill="rgba(28, 83, 142, 0.4)" class="triangle-float3"></path><path d="M194.237,1680.594C292.043,1684.622,373.798,1610.839,419.128,1524.078C461.11,1443.726,454.869,1348.433,408.475,1270.546C363.216,1194.565,282.638,1149.118,194.237,1146.53C100.768,1143.794,1.616,1175.094,-42.886,1257.334C-85.902,1336.828,-44.884,1427.933,-0.707,1506.788C44.898,1588.192,101.008,1676.755,194.237,1680.594" fill="rgba(28, 83, 142, 0.4)" class="triangle-float2"></path><path d="M368.591,1920.218C509.94,1926.297,667.16,1904.31,740.097,1783.08C814.582,1659.276,771.609,1502.502,692.737,1381.445C621.482,1272.078,499.054,1208.672,368.591,1212.871C245.141,1216.844,141.601,1294.925,78.674,1401.207C14.347,1509.855,-12.979,1643.109,48.596,1753.34C111.474,1865.904,239.775,1914.678,368.591,1920.218" fill="rgba(28, 83, 142, 0.4)" class="triangle-float1"></path><path d="M80.405,1453.024C140.526,1452.007,191.918,1414.219,222.118,1362.223C252.47,1309.965,263.626,1244.344,231.248,1193.316C200.553,1144.94,137.597,1135.488,80.405,1138.881C29.898,1141.878,-14.505,1167.286,-42.324,1209.548C-73.754,1257.295,-95.59,1316.116,-69.86,1367.161C-42.029,1422.374,18.583,1454.069,80.405,1453.024" fill="rgba(28, 83, 142, 0.4)" class="triangle-float2"></path><path d="M2005.991,1834.318C2135.622,1840.133,2275.83,1811.558,2343.872,1701.067C2414.496,1586.385,2390.802,1439.258,2319.729,1324.854C2252.663,1216.901,2133.005,1152.817,2005.991,1157.192C1886.03,1161.324,1786.278,1240.55,1727.577,1345.249C1670.293,1447.421,1658.883,1571.141,1716.833,1672.937C1775.362,1775.751,1887.804,1829.016,2005.991,1834.318" fill="rgba(28, 83, 142, 0.4)" class="triangle-float3"></path><path d="M1943.933,1733.015C2056.118,1733.887,2177.366,1708.248,2233.271,1610.982C2289.043,1513.947,2250.862,1395.926,2192.609,1300.36C2137.212,1209.479,2050.306,1132.721,1943.933,1136.309C1842.121,1139.744,1775.058,1228.819,1722.714,1316.212C1668.274,1407.104,1612.615,1512.959,1662.285,1606.543C1713.996,1703.972,1833.634,1732.157,1943.933,1733.015" fill="rgba(28, 83, 142, 0.4)" class="triangle-float1"></path><path d="M1953.995,1710.256C2054.848,1714.279,2161.185,1689.989,2216.358,1605.47C2276.221,1513.765,2275.757,1394.666,2222.457,1298.998C2167.716,1200.742,2066.454,1132.569,1953.995,1134.552C1844.518,1136.483,1750.897,1210.495,1701.449,1308.187C1656.475,1397.04,1672.572,1501.561,1725.542,1585.892C1774.97,1664.584,1861.141,1706.552,1953.995,1710.256" fill="rgba(28, 83, 142, 0.4)" class="triangle-float1"></path></g><defs><mask id="SvgjsMask1090"><rect width="2000" height="1500" fill="#ffffff"></rect></mask><linearGradient x1="6.25%" y1="108.33%" x2="93.75%" y2="-8.33%" gradientUnits="userSpaceOnUse" id="SvgjsLinearGradient1091"><stop stop-color="#0e2a47" offset="0"></stop><stop stop-color="#00459e" offset="1"></stop></linearGradient><style>
            @keyframes float1 {
                0%{transform: translate(0, 0)}
                50%{transform: translate(-10px, 0)}
                100%{transform: translate(0, 0)}
            }

            .triangle-float1 {
                animation: float1 5s infinite;
            }

            @keyframes float2 {
                0%{transform: translate(0, 0)}
                50%{transform: translate(-5px, -5px)}
                100%{transform: translate(0, 0)}
            }

            .triangle-float2 {
                animation: float2 4s infinite;
            }

            @keyframes float3 {
                0%{transform: translate(0, 0)}
                50%{transform: translate(0, -10px)}
                100%{transform: translate(0, 0)}
            }

            .triangle-float3 {
                animation: float3 6s infinite;
            }
        </style></defs></svg>